HIERARCHY
ROOT Hips
{
	OFFSET 0.000000 0.000000 0.000000 
	CHANNELS 6 Xposition Yposition Zposition Xrotation Yrotation Zrotation
	JOINT Spine
	{
		OFFSET 0.000000 1.722820 2.584230 
		CHANNELS 3 Xrotation Yrotation Zrotation
		JOINT Spine1
		{
			OFFSET 0.000000 0.598330 3.393290 
			CHANNELS 3 Xrotation Yrotation Zrotation
			JOINT Spine2
			{
				OFFSET 0.000000 0.300310 3.432520 
				CHANNELS 3 Xrotation Yrotation Zrotation
				JOINT Spine3
				{
					OFFSET 0.000000 0.000000 3.445640 
					CHANNELS 3 Xrotation Yrotation Zrotation
					JOINT Neck
					{
						OFFSET 0.000000 -1.292100 9.044790 
						CHANNELS 3 Xrotation Yrotation Zrotation
						JOINT Head
						{
							OFFSET 0.000000 -0.822700 4.665770 
							CHANNELS 3 Xrotation Yrotation Zrotation
							End Site
							{
								OFFSET 0.000000 0.000010 5.577620 
							}
						}
					}
					JOINT RightShoulder
					{
						OFFSET -1.175120 -1.958530 6.345670 
						CHANNELS 3 Xrotation Yrotation Zrotation
						JOINT RightArm
						{
							OFFSET -5.836450 0.000000 0.000000 
							CHANNELS 3 Xrotation Yrotation Zrotation
							JOINT RightForeArm
							{
								OFFSET -10.886420 0.000000 0.000000 
								CHANNELS 3 Xrotation Yrotation Zrotation
								JOINT RightHand
								{
									OFFSET -10.194950 0.000000 0.000000 
									CHANNELS 3 Xrotation Yrotation Zrotation
									JOINT RightHandEnd
									{
										OFFSET -2.735920 0.000000 0.000000 
										CHANNELS 3 Xrotation Yrotation Zrotation
										End Site
										{
											OFFSET -2.735920 0.000000 0.000000 
										}
									}
									JOINT RightHandThumb1
									{
										OFFSET -1.094370 -1.823950 -0.729580 
										CHANNELS 3 Yrotation Xrotation Zrotation
										End Site
										{
											OFFSET -2.642700 -0.708110 0.000000 
										}
									}
								}
							}
						}
					}
					JOINT LeftShoulder
					{
						OFFSET 1.175120 -1.958530 6.345670 
						CHANNELS 3 Xrotation Yrotation Zrotation
						JOINT LeftArm
						{
							OFFSET 5.836450 0.000000 0.000000 
							CHANNELS 3 Xrotation Yrotation Zrotation
							JOINT LeftForeArm
							{
								OFFSET 10.886420 0.000000 0.000000 
								CHANNELS 3 Xrotation Yrotation Zrotation
								JOINT LeftHand
								{
									OFFSET 10.194950 0.000000 0.000000 
									CHANNELS 3 Xrotation Yrotation Zrotation
									JOINT LeftHandEnd
									{
										OFFSET 2.735920 0.000000 0.000000 
										CHANNELS 3 Xrotation Yrotation Zrotation
										End Site
										{
											OFFSET 2.735920 0.000000 0.000000 
										}
									}
									JOINT LeftHandThumb1
									{
										OFFSET 1.094370 -1.823950 -0.729580 
										CHANNELS 3 Yrotation Xrotation Zrotation
										End Site
										{
											OFFSET 2.642700 -0.708110 0.000000 
										}
									}
								}
							}
						}
					}
				}
			}
		}
	}
	JOINT RightUpLeg
	{
		OFFSET -3.486200 0.000000 -1.018440 
		CHANNELS 3 Xrotation Yrotation Zrotation
		JOINT RightLeg
		{
			OFFSET 0.000010 0.000000 -16.688210 
			CHANNELS 3 Xrotation Yrotation Zrotation
			JOINT RightFoot
			{
				OFFSET 0.000010 0.000000 -16.775360 
				CHANNELS 3 Xrotation Yrotation Zrotation
				JOINT RightToeBase
				{
					OFFSET 0.000000 -4.945160 -1.799890 
					CHANNELS 3 Xrotation Yrotation Zrotation
					End Site
					{
						OFFSET 0.000000 -2.820300 -0.000000 
					}
				}
			}
		}
	}
	JOINT LeftUpLeg
	{
		OFFSET 3.486200 0.000000 -1.018440 
		CHANNELS 3 Xrotation Yrotation Zrotation
		JOINT LeftLeg
		{
			OFFSET 0.000010 0.000000 -16.688210 
			CHANNELS 3 Xrotation Yrotation Zrotation
			JOINT LeftFoot
			{
				OFFSET 0.000010 0.000000 -16.775360 
				CHANNELS 3 Xrotation Yrotation Zrotation
				JOINT LeftToeBase
				{
					OFFSET 0.000000 -4.945160 -1.799890 
					CHANNELS 3 Xrotation Yrotation Zrotation
					End Site
					{
						OFFSET 0.000000 -2.820300 -0.000000 
					}
				}
			}
		}
	}
}
MOTION
Frames: 12
Frame Time: 0.008333
43.569000 40.886101 4.107200 -103.113701 2.546400 97.011597 1.658800 3.722000 0.445100 3.367100 -0.467100 0.217700 2.569300 15.733300 5.369600 -0.866600 4.960700 -1.355800 -5.081000 0.992300 -7.970200 -13.908100 8.158700 -33.778599 -12.137900 22.279699 18.029100 -43.201000 -3.883800 50.423199 -0.000000 0.000100 88.718697 -17.627300 -3.851700 -1.730500 -0.000000 0.000000 0.000000 0.000000 -0.000000 0.000000 -7.352500 4.755600 -3.111600 47.970901 39.800701 -63.068001 -0.000100 -0.000000 -124.013397 -21.754900 7.450000 14.967100 0.000000 -0.000000 0.000000 0.000000 -0.000000 -0.000000 -13.635100 14.638300 -41.909698 16.268499 0.000000 0.000000 3.295300 -5.653800 -9.077200 -0.274400 0.000000 -0.000000 -17.885401 -32.835499 -3.529600 28.710600 0.000000 0.000000 21.870800 10.186700 -24.713900 3.139300 0.000000 0.000000 
43.568600 40.397598 3.895500 -103.368500 2.451100 97.696098 2.058000 3.282300 0.334200 3.521000 -0.434600 0.224700 2.369000 15.014900 5.266100 -0.873600 4.854500 -1.387000 -4.664400 1.958600 -7.373900 -13.817400 7.528900 -33.812199 -12.138200 22.667900 19.019699 -41.174000 -4.333500 49.473301 -0.000000 0.000100 91.726799 -15.048200 -3.346100 -1.204600 -0.000000 -0.000000 -0.000000 0.000000 0.000000 0.000000 -7.629600 4.491900 -2.639700 48.600300 40.786400 -63.289101 -0.000100 -0.000000 -124.612000 -22.286100 8.053700 14.554800 0.000000 -0.000000 0.000000 -0.000000 0.000000 0.000000 -15.108500 15.971700 -41.919701 16.639500 0.000000 0.000000 2.927300 -5.749700 -9.062800 -1.157900 0.000000 -0.000000 -16.099100 -32.576500 -2.413600 28.974701 0.000000 0.000000 21.478901 10.393100 -25.198200 2.002200 0.000000 0.000000 
43.556999 39.879398 3.685000 -103.651802 2.421500 98.478600 2.352800 2.802800 0.219500 3.649100 -0.477000 0.225700 2.401700 14.486400 5.192500 -0.883200 4.734900 -1.403500 -4.458800 2.350900 -7.040000 -13.578800 7.317500 -33.814098 -12.258800 22.965300 19.696100 -39.033100 -4.762800 48.142899 -0.000000 0.000100 94.871597 -11.848900 -3.125900 -0.287200 0.000000 -0.000000 0.000000 0.000000 0.000000 0.000000 -8.437200 3.937900 -2.333300 49.975399 41.911301 -63.824299 -0.000100 -0.000000 -125.212303 -22.462000 8.803400 14.067300 0.000000 0.000000 0.000000 0.000000 0.000000 0.000000 -16.663601 17.297800 -41.744701 17.003901 0.000000 0.000000 2.839200 -5.671900 -8.893800 -2.292000 0.000000 -0.000000 -14.590600 -32.259499 -1.020600 29.175301 0.000000 0.000000 20.110600 10.635800 -24.938801 0.992100 0.000000 0.000000 
43.527599 39.336700 3.469400 -103.921898 2.493600 99.368301 2.605800 2.259800 0.116500 3.739800 -0.502400 0.228500 2.525000 14.054500 5.143200 -0.868200 4.615600 -1.393500 -4.399900 2.441100 -6.902000 -13.103100 7.354800 -33.844501 -12.245200 23.198299 20.016600 -37.009899 -5.164200 46.484200 -0.000000 0.000100 98.056602 -8.125000 -3.580500 1.173100 -0.000000 -0.000000 -0.000000 -0.000000 -0.000000 0.000000 -8.706800 3.588600 -1.932000 50.555698 42.498798 -64.358398 -0.000100 -0.000000 -125.760597 -22.450899 9.300300 13.509800 -0.000000 0.000000 -0.000000 0.000000 -0.000000 -0.000000 -18.376600 18.721100 -41.324699 17.481100 0.000000 0.000000 3.015400 -5.538900 -8.773400 -3.436000 0.000000 -0.000000 -13.304400 -31.826799 0.509500 29.391500 0.000000 0.000000 17.510000 10.444600 -23.956800 -1.646500 0.000000 -0.000000 
43.481400 38.780998 3.253800 -104.199402 2.635300 100.381897 2.850400 1.663700 0.020300 3.841800 -0.516000 0.226700 2.631700 13.658200 5.039800 -0.863400 4.532600 -1.391200 -4.320200 2.415700 -6.853600 -12.467200 7.440300 -33.875000 -12.029700 23.261900 20.165600 -35.153198 -5.461700 44.674000 -0.000000 0.000100 101.275703 -5.121400 -4.509200 1.780700 -0.000000 0.000000 -0.000000 -0.000000 -0.000000 0.000000 -8.562400 3.436400 -1.479200 50.402901 42.730999 -64.612297 -0.000100 -0.000000 -126.321999 -22.287800 9.568700 12.944500 0.000000 0.000000 -0.000000 -0.000000 0.000000 -0.000000 -20.190300 20.191401 -40.592400 18.011299 0.000000 0.000000 3.429700 -5.542400 -8.757700 -4.506900 0.000000 -0.000000 -12.202200 -31.410101 1.658100 29.583099 0.000000 0.000000 13.450200 12.128800 -22.262699 -4.931300 0.000000 -0.000000 
43.414501 38.205898 3.039200 -104.499702 2.857700 101.506897 3.101200 0.958100 -0.085200 3.933100 -0.462000 0.220000 2.691900 13.250600 4.908900 -0.864500 4.481100 -1.393100 -4.163500 2.415700 -6.853700 -11.855600 7.425300 -34.007599 -11.691800 23.362200 20.155001 -33.324299 -5.754000 42.729099 -0.000100 0.000100 104.534897 -3.136300 -5.274900 1.137400 0.000000 -0.000000 -0.000000 -0.000000 -0.000000 0.000000 -8.372400 3.167100 -1.116300 50.165401 43.058102 -64.795502 -0.000100 -0.000000 -126.898102 -21.999701 9.879200 12.493000 0.000000 0.000000 -0.000000 0.000000 -0.000000 -0.000000 -22.101801 21.691200 -39.571899 18.556101 0.000000 0.000000 4.042600 -5.824200 -8.643000 -5.221400 0.000000 -0.000000 -11.225200 -30.992500 2.750200 29.507401 0.000000 0.000000 7.751000 13.730000 -19.762899 -9.685200 0.000000 -0.000000 
43.334202 37.628101 2.839400 -104.758202 3.131400 102.747803 3.381200 0.268900 -0.198700 4.008400 -0.348500 0.215900 2.736500 12.852200 4.746300 -0.868600 4.432200 -1.392000 -3.907000 2.382900 -6.925000 -11.513100 7.281500 -34.262299 -11.218700 23.414801 19.980301 -31.499701 -5.999700 40.650600 -0.000100 0.000100 107.736000 -1.578000 -5.862500 0.097500 0.000000 0.000000 0.000000 0.000000 -0.000000 -0.000000 -8.157500 2.791500 -0.922600 49.691700 43.359299 -64.676399 -0.000100 -0.000000 -127.553802 -21.502600 9.941100 12.299400 0.000000 -0.000000 0.000000 0.000000 -0.000000 -0.000000 -24.015499 23.227301 -38.386398 19.072300 0.000000 0.000000 4.648400 -6.115400 -8.363500 -4.820000 0.000000 -0.000000 -10.500100 -30.542999 3.784900 29.290701 0.000000 0.000000 1.146000 14.744100 -17.104200 -11.282800 0.000000 -0.000000 
43.255299 37.074299 2.667600 -104.870697 3.376400 104.095001 3.718400 -0.166600 -0.277500 4.118300 -0.271100 0.219300 2.830100 12.500400 4.508200 -0.880200 4.343700 -1.387900 -3.596500 2.251100 -7.096100 -11.488300 7.063400 -34.580200 -10.586500 23.220301 19.690701 -29.754499 -6.066500 38.464100 -0.000100 0.000100 110.828796 -0.391100 -6.540600 -1.132600 0.000000 -0.000000 0.000000 -0.000000 -0.000000 0.000000 -7.813300 2.599200 -0.889300 48.634998 43.611500 -63.957199 -0.000100 -0.000000 -128.281296 -21.023500 10.009200 12.409900 -0.000000 0.000000 -0.000000 -0.000000 0.000000 -0.000000 -25.789900 24.827900 -36.890800 19.653000 0.000000 0.000000 5.059100 -6.574300 -7.815500 -3.412600 0.000000 -0.000000 -10.272900 -30.014900 4.686200 29.089899 0.000000 0.000000 -5.775800 14.830700 -15.140800 -8.779200 0.000000 -0.000000 
43.187302 36.554001 2.523900 -104.693001 3.666300 105.501198 4.071400 -0.163800 -0.305700 4.238700 -0.290500 0.239900 2.992100 12.290200 4.207700 -0.873600 4.187200 -1.382900 -3.276400 1.995700 -7.391700 -11.697800 6.824000 -34.902302 -9.797500 22.713900 19.226299 -28.055500 -5.976900 36.252102 -0.000100 0.000100 113.746300 0.521800 -7.300800 -2.412800 0.000000 0.000000 0.000000 -0.000000 -0.000000 0.000000 -7.370300 2.566200 -1.024700 47.170898 43.975601 -62.756401 -0.000100 -0.000000 -128.994705 -20.741899 10.400100 12.631800 -0.000000 0.000000 -0.000000 -0.000000 0.000000 0.000000 -27.464899 26.603600 -34.943802 20.320101 0.000000 0.000000 5.243700 -7.927600 -6.954300 -1.778800 0.000000 -0.000000 -10.623400 -29.330900 5.317600 29.269501 0.000000 0.000000 -11.692700 14.547000 -13.864200 -6.225300 0.000000 -0.000000 
43.137699 36.050999 2.394800 -104.277496 3.921000 106.882202 4.406200 0.092200 -0.310800 4.433500 -0.286700 0.279400 3.256000 12.114300 3.893500 -0.867900 3.972800 -1.371800 -2.990200 1.755900 -7.713400 -11.964900 6.568500 -35.264198 -8.969500 22.171600 18.657101 -26.355101 -6.131300 33.941502 -0.000100 0.000100 116.359001 0.419000 -7.874800 -3.284400 0.000000 -0.000000 -0.000000 -0.000000 -0.000000 -0.000000 -6.935200 2.501600 -1.317300 45.689800 44.524502 -61.378799 -0.000100 -0.000000 -129.640900 -20.529900 10.838200 12.704400 -0.000000 -0.000000 0.000000 -0.000000 0.000000 0.000000 -29.003401 28.465000 -32.622799 21.057699 0.000000 0.000000 5.387700 -10.770300 -5.805600 -1.260700 0.000000 -0.000000 -11.435000 -28.431200 4.930300 30.178900 0.000000 0.000000 -16.867800 13.797700 -12.632400 -4.134300 0.000000 -0.000000 
43.098400 35.574501 2.300500 -103.962402 4.209300 108.232101 4.692000 0.417800 -0.262800 4.600200 -0.356700 0.320000 3.618100 11.891100 3.594100 -0.823700 3.758700 -1.345800 -2.929100 1.537600 -8.115800 -12.199400 6.330700 -35.588100 -8.223000 21.511900 17.887501 -24.518200 -6.520600 31.762300 -0.000100 0.000100 118.437202 0.403400 -8.516100 -3.177900 0.000000 0.000000 0.000000 0.000000 0.000000 -0.000000 -6.646700 2.314600 -1.676200 44.428699 45.243401 -60.036999 -0.000100 -0.000000 -130.161606 -20.376400 11.396100 12.471400 0.000000 -0.000000 0.000000 0.000000 0.000000 0.000000 -30.575100 30.039499 -30.099199 21.885700 0.000000 0.000000 5.720800 -14.580100 -4.514500 -1.927000 0.000000 -0.000000 -12.626000 -27.747801 4.227400 31.420401 0.000000 0.000000 -21.387199 13.008000 -11.790700 -2.182300 0.000000 -0.000000 
43.067101 35.132401 2.232800 -103.747902 4.524600 109.540604 4.961000 0.741900 -0.273100 4.761800 -0.419800 0.359600 4.022200 11.561600 3.307400 -0.798300 3.526100 -1.296400 -3.030400 1.640100 -8.360200 -12.340800 5.941500 -36.026402 -7.322500 21.083401 16.993099 -22.842300 -7.290000 29.676701 -0.000100 0.000100 120.290398 0.039700 -9.414700 -3.171900 0.000000 0.000000 -0.000000 -0.000000 -0.000000 0.000000 -6.464300 2.247500 -1.955200 43.053902 45.907299 -58.380199 -0.000100 -0.000000 -130.639099 -20.349400 11.911100 12.115800 -0.000000 -0.000000 -0.000000 0.000000 -0.000000 -0.000000 -32.235100 31.348700 -27.758699 22.903000 0.000000 0.000000 6.245500 -18.197599 -2.986500 -2.775900 0.000000 -0.000000 -14.121700 -27.221500 3.266200 32.921398 0.000000 0.000000 -25.192200 12.388400 -11.253800 -0.630200 0.000000 -0.000000 
